<svg width="26" height="26" viewBox="0 0 26 26" fill="none" xmlns="http://www.w3.org/2000/svg">
<g id="united-states 1">
<path id="Vector" d="M24.0528 4.48276H1.94721C0.871762 4.48276 0 5.35452 0 6.42996V19.5701C0 20.6455 0.871762 21.5173 1.94721 21.5173H24.0528C25.1282 21.5173 26 20.6455 26 19.5701V6.42996C26 5.35452 25.1282 4.48276 24.0528 4.48276Z" fill="#F5F5F5"/>
<g id="Group">
<path id="Vector_2" d="M0.107422 5.79312H25.8932C25.6293 5.03054 24.9054 4.48276 24.0531 4.48276H1.94753C1.09522 4.48276 0.371332 5.03054 0.107422 5.79312Z" fill="#FF4B55"/>
<path id="Vector_3" d="M26 9.72409H0V11.0344H26V9.72409Z" fill="#FF4B55"/>
<path id="Vector_4" d="M26 7.10327H0V8.41358H26V7.10327Z" fill="#FF4B55"/>
<path id="Vector_5" d="M0 13.2069C0 13.4544 0.200738 13.6552 0.448297 13.6552H26V12.3448H0V13.2069Z" fill="#FF4B55"/>
<path id="Vector_6" d="M26 17.5865H0V18.8969H26V17.5865Z" fill="#FF4B55"/>
<path id="Vector_7" d="M25.8932 20.2068H0.107422C0.371332 20.9694 1.09527 21.5172 1.94753 21.5172H24.0531C24.9054 21.5172 25.6293 20.9694 25.8932 20.2068Z" fill="#FF4B55"/>
<path id="Vector_8" d="M26 14.9657H0V16.276H26V14.9657Z" fill="#FF4B55"/>
</g>
<path id="Vector_9" d="M0.448297 13.6552H11.6552C11.9028 13.6552 12.1035 13.4545 12.1035 13.2069V4.93102C12.1035 4.68341 11.9028 4.48273 11.6552 4.48273H1.94721C0.871762 4.48278 0 5.35454 0 6.42998V13.2069C0 13.4545 0.200738 13.6552 0.448297 13.6552Z" fill="#41479B"/>
<g id="Group_2">
<path id="Vector_10" d="M1.25868 5.51178L1.35791 5.80936L1.67158 5.81175C1.71221 5.8121 1.72902 5.8639 1.69636 5.88802L1.44403 6.07434L1.53869 6.37339C1.55098 6.41208 1.50685 6.44418 1.47379 6.42051L1.21861 6.23816L0.96344 6.42056C0.930381 6.44423 0.886354 6.41213 0.898541 6.37344L0.993197 6.07439L0.740866 5.88807C0.708214 5.8639 0.725022 5.8121 0.765647 5.8118L1.07932 5.80941L1.17855 5.51183C1.19135 5.47324 1.24578 5.47324 1.25868 5.51178Z" fill="#F5F5F5"/>
<path id="Vector_11" d="M1.25868 7.06829L1.35791 7.36587L1.67158 7.36826C1.71221 7.36862 1.72902 7.42036 1.69636 7.44453L1.44403 7.6309L1.53869 7.92996C1.55098 7.96865 1.50685 8.00075 1.47379 7.97708L1.21861 7.79473L0.96344 7.97713C0.930381 8.00075 0.886354 7.9687 0.898541 7.93001L0.993197 7.63095L0.740866 7.44458C0.708214 7.42041 0.725022 7.36867 0.765647 7.36831L1.07932 7.36592L1.17855 7.06834C1.19135 7.0298 1.24578 7.0298 1.25868 7.06829Z" fill="#F5F5F5"/>
<path id="Vector_12" d="M1.25868 8.62503L1.35791 8.92261L1.67158 8.925C1.71221 8.92535 1.72902 8.9771 1.69636 9.00127L1.44403 9.18764L1.53869 9.48669C1.55098 9.52538 1.50685 9.55748 1.47379 9.53382L1.21861 9.35146L0.96344 9.53387C0.930381 9.55748 0.886354 9.52549 0.898541 9.48674L0.993197 9.18769L0.740866 9.00132C0.708214 8.97715 0.725022 8.9254 0.765647 8.92505L1.07932 8.92266L1.17855 8.62508C1.19135 8.58649 1.24578 8.58649 1.25868 8.62503Z" fill="#F5F5F5"/>
<path id="Vector_13" d="M1.25868 10.1816L1.35791 10.4792L1.67158 10.4816C1.71221 10.482 1.72902 10.5338 1.69636 10.5579L1.44403 10.7442L1.53869 11.0433C1.55098 11.082 1.50685 11.1141 1.47379 11.0904L1.21861 10.9081L0.96344 11.0905C0.930381 11.1141 0.886354 11.082 0.898541 11.0433L0.993197 10.7443L0.740866 10.5579C0.708214 10.5339 0.725022 10.482 0.765647 10.4817L1.07932 10.4793L1.17855 10.1817C1.19135 10.1431 1.24578 10.1431 1.25868 10.1816Z" fill="#F5F5F5"/>
<path id="Vector_14" d="M1.25868 11.7383L1.35791 12.0359L1.67158 12.0383C1.71221 12.0386 1.72902 12.0904 1.69636 12.1145L1.44403 12.3009L1.53869 12.6C1.55098 12.6387 1.50685 12.6707 1.47379 12.6471L1.21861 12.4647L0.96344 12.6471C0.930381 12.6707 0.886354 12.6387 0.898541 12.6L0.993197 12.301L0.740866 12.1146C0.708214 12.0904 0.725022 12.0387 0.765647 12.0383L1.07932 12.0359L1.17855 11.7384C1.19135 11.6998 1.24578 11.6998 1.25868 11.7383Z" fill="#F5F5F5"/>
<path id="Vector_15" d="M2.46669 6.27484L2.56592 6.57242L2.87959 6.57481C2.92022 6.57516 2.93702 6.62696 2.90437 6.65108L2.65204 6.83745L2.7467 7.1365C2.75899 7.1752 2.71486 7.20729 2.6818 7.18363L2.42662 7.00122L2.17145 7.18363C2.13839 7.20724 2.09436 7.1752 2.10655 7.1365L2.20121 6.83745L1.94887 6.65108C1.91622 6.62691 1.93303 6.57516 1.97365 6.57481L2.28733 6.57242L2.38656 6.27484C2.39935 6.23635 2.45384 6.23635 2.46669 6.27484Z" fill="#F5F5F5"/>
<path id="Vector_16" d="M2.46669 7.83158L2.56592 8.12916L2.87959 8.13155C2.92022 8.1319 2.93702 8.1837 2.90437 8.20782L2.65204 8.39419L2.7467 8.69324C2.75899 8.73193 2.71486 8.76403 2.6818 8.74036L2.42662 8.55796L2.17145 8.74036C2.13839 8.76398 2.09436 8.73198 2.10655 8.69324L2.20121 8.39419L1.94887 8.20782C1.91622 8.18375 1.93303 8.1319 1.97365 8.13155L2.28733 8.12916L2.38656 7.83158C2.39935 7.79304 2.45384 7.79304 2.46669 7.83158Z" fill="#F5F5F5"/>
<path id="Vector_17" d="M2.46669 9.38819L2.56592 9.68577L2.87959 9.68816C2.92022 9.68851 2.93702 9.74026 2.90437 9.76443L2.65204 9.9508L2.7467 10.2499C2.75899 10.2885 2.71486 10.3206 2.6818 10.297L2.42662 10.1146L2.17145 10.297C2.13839 10.3206 2.09436 10.2885 2.10655 10.2499L2.20121 9.9508L1.94887 9.76443C1.91622 9.74026 1.93303 9.68851 1.97365 9.68816L2.28733 9.68577L2.38656 9.38819C2.39935 9.34965 2.45384 9.34965 2.46669 9.38819Z" fill="#F5F5F5"/>
<path id="Vector_18" d="M2.46669 10.9448L2.56592 11.2424L2.87959 11.2448C2.92022 11.2451 2.93702 11.2969 2.90437 11.3211L2.65204 11.5074L2.7467 11.8065C2.75899 11.8452 2.71486 11.8773 2.6818 11.8536L2.42662 11.6712L2.17145 11.8536C2.13839 11.8773 2.09436 11.8452 2.10655 11.8065L2.20121 11.5074L1.94887 11.3211C1.91622 11.2969 1.93303 11.2451 1.97365 11.2448L2.28733 11.2424L2.38656 10.9448C2.39935 10.9063 2.45384 10.9063 2.46669 10.9448Z" fill="#F5F5F5"/>
<path id="Vector_19" d="M3.6747 5.51166L3.77392 5.80924L4.0876 5.81163C4.12822 5.81199 4.14503 5.86378 4.11238 5.8879L3.86005 6.07422L3.9547 6.37327C3.96699 6.41197 3.92286 6.44406 3.88981 6.4204L3.63463 6.23799L3.37945 6.4204C3.3464 6.44406 3.30237 6.41197 3.31456 6.37327L3.40921 6.07422L3.15688 5.8879C3.12423 5.86373 3.14104 5.81193 3.18166 5.81163L3.49534 5.80924L3.59456 5.51166C3.60736 5.47312 3.66185 5.47312 3.6747 5.51166Z" fill="#F5F5F5"/>
<path id="Vector_20" d="M3.6747 7.0683L3.77392 7.36588L4.0876 7.36826C4.12822 7.36862 4.14503 7.42036 4.11238 7.44454L3.86005 7.6309L3.9547 7.92995C3.96699 7.96865 3.92286 8.00074 3.88981 7.97708L3.63463 7.79467L3.37945 7.97708C3.3464 8.00069 3.30237 7.96865 3.31456 7.92995L3.40921 7.6309L3.15688 7.44454C3.12423 7.42036 3.14104 7.36862 3.18166 7.36826L3.49534 7.36588L3.59456 7.0683C3.60736 7.02981 3.66185 7.02981 3.6747 7.0683Z" fill="#F5F5F5"/>
<path id="Vector_21" d="M3.6747 8.62504L3.77392 8.92262L4.0876 8.925C4.12822 8.92536 4.14503 8.9771 4.11238 9.00128L3.86005 9.18764L3.9547 9.48669C3.96699 9.52539 3.92286 9.55748 3.88981 9.53382L3.63463 9.35141L3.37945 9.53382C3.3464 9.55743 3.30237 9.52544 3.31456 9.48669L3.40921 9.18764L3.15688 9.00128C3.12423 8.9771 3.14104 8.92536 3.18166 8.925L3.49534 8.92262L3.59456 8.62504C3.60736 8.58649 3.66185 8.58649 3.6747 8.62504Z" fill="#F5F5F5"/>
<path id="Vector_22" d="M3.6747 10.1816L3.77392 10.4792L4.0876 10.4816C4.12822 10.482 4.14503 10.5338 4.11238 10.5579L3.86005 10.7443L3.9547 11.0433C3.96699 11.082 3.92286 11.1141 3.88981 11.0904L3.63463 10.908L3.37945 11.0904C3.3464 11.114 3.30237 11.082 3.31456 11.0433L3.40921 10.7443L3.15688 10.5579C3.12423 10.5338 3.14104 10.482 3.18166 10.4816L3.49534 10.4792L3.59456 10.1816C3.60736 10.1431 3.66185 10.1431 3.6747 10.1816Z" fill="#F5F5F5"/>
<path id="Vector_23" d="M3.6747 11.7383L3.77392 12.0359L4.0876 12.0382C4.12822 12.0386 4.14503 12.0903 4.11238 12.1145L3.86005 12.3009L3.9547 12.5999C3.96699 12.6386 3.92286 12.6707 3.88981 12.6471L3.63463 12.4647L3.37945 12.6471C3.3464 12.6707 3.30237 12.6386 3.31456 12.5999L3.40921 12.3009L3.15688 12.1145C3.12423 12.0903 3.14104 12.0386 3.18166 12.0382L3.49534 12.0359L3.59456 11.7383C3.60736 11.6998 3.66185 11.6998 3.6747 11.7383Z" fill="#F5F5F5"/>
<path id="Vector_24" d="M4.88368 6.27484L4.98291 6.57242L5.29658 6.57481C5.33721 6.57516 5.35402 6.62696 5.32137 6.65108L5.06903 6.83745L5.16369 7.1365C5.17598 7.1752 5.13185 7.20729 5.09879 7.18363L4.84362 7.00122L4.58844 7.18363C4.55538 7.20724 4.51135 7.1752 4.52354 7.1365L4.6182 6.83745L4.36587 6.65108C4.33321 6.62691 4.35002 6.57516 4.39065 6.57481L4.70432 6.57242L4.80355 6.27484C4.8163 6.23635 4.87083 6.23635 4.88368 6.27484Z" fill="#F5F5F5"/>
<path id="Vector_25" d="M4.88368 7.83158L4.98291 8.12916L5.29658 8.13155C5.33721 8.1319 5.35402 8.1837 5.32137 8.20782L5.06903 8.39419L5.16369 8.69324C5.17598 8.73193 5.13185 8.76403 5.09879 8.74036L4.84362 8.55796L4.58844 8.74036C4.55538 8.76398 4.51135 8.73198 4.52354 8.69324L4.6182 8.39419L4.36587 8.20782C4.33321 8.18375 4.35002 8.1319 4.39065 8.13155L4.70432 8.12916L4.80355 7.83158C4.8163 7.79304 4.87083 7.79304 4.88368 7.83158Z" fill="#F5F5F5"/>
<path id="Vector_26" d="M4.88368 9.38819L4.98291 9.68577L5.29658 9.68816C5.33721 9.68851 5.35402 9.74026 5.32137 9.76443L5.06903 9.9508L5.16369 10.2499C5.17598 10.2885 5.13185 10.3206 5.09879 10.297L4.84362 10.1146L4.58844 10.297C4.55538 10.3206 4.51135 10.2885 4.52354 10.2499L4.6182 9.9508L4.36587 9.76443C4.33321 9.74026 4.35002 9.68851 4.39065 9.68816L4.70432 9.68577L4.80355 9.38819C4.8163 9.34965 4.87083 9.34965 4.88368 9.38819Z" fill="#F5F5F5"/>
<path id="Vector_27" d="M4.88368 10.9448L4.98291 11.2424L5.29658 11.2448C5.33721 11.2451 5.35402 11.2969 5.32137 11.3211L5.06903 11.5074L5.16369 11.8065C5.17598 11.8452 5.13185 11.8773 5.09879 11.8536L4.84362 11.6712L4.58844 11.8536C4.55538 11.8773 4.51135 11.8452 4.52354 11.8065L4.6182 11.5074L4.36587 11.3211C4.33321 11.2969 4.35002 11.2451 4.39065 11.2448L4.70432 11.2424L4.80355 10.9448C4.8163 10.9063 4.87083 10.9063 4.88368 10.9448Z" fill="#F5F5F5"/>
<path id="Vector_28" d="M6.09174 5.51166L6.19097 5.80924L6.50465 5.81162C6.54527 5.81198 6.56208 5.86378 6.52943 5.8879L6.27709 6.07421L6.37175 6.37326C6.38404 6.41196 6.33991 6.44405 6.30685 6.42039L6.05162 6.23803L5.79645 6.42044C5.76339 6.4441 5.71936 6.41201 5.73155 6.37331L5.82621 6.07426L5.57387 5.88795C5.54122 5.86378 5.55803 5.81198 5.59865 5.81167L5.91233 5.80929L6.01156 5.51171C6.02441 5.47312 6.07889 5.47312 6.09174 5.51166Z" fill="#F5F5F5"/>
<path id="Vector_29" d="M6.09174 7.0683L6.19097 7.36588L6.50465 7.36826C6.54527 7.36862 6.56208 7.42036 6.52943 7.44454L6.27709 7.6309L6.37175 7.92995C6.38404 7.96865 6.33991 8.00074 6.30685 7.97708L6.05162 7.79467L5.79645 7.97708C5.76339 8.00069 5.71936 7.96865 5.73155 7.92995L5.82621 7.6309L5.57387 7.44454C5.54122 7.42036 5.55803 7.36862 5.59865 7.36826L5.91233 7.36588L6.01156 7.0683C6.02441 7.02981 6.07889 7.02981 6.09174 7.0683Z" fill="#F5F5F5"/>
<path id="Vector_30" d="M6.09174 8.62501L6.19097 8.92259L6.50465 8.92498C6.54527 8.92533 6.56208 8.97708 6.52943 9.00125L6.27709 9.18762L6.37175 9.48667C6.38404 9.52536 6.33991 9.55746 6.30685 9.53379L6.05162 9.35134L5.79645 9.53374C5.76339 9.55736 5.71936 9.52531 5.73155 9.48662L5.82621 9.18757L5.57387 9.0012C5.54122 8.97703 5.55803 8.92528 5.59865 8.92493L5.91233 8.92254L6.01156 8.62496C6.02441 8.58647 6.07889 8.58647 6.09174 8.62501Z" fill="#F5F5F5"/>
<path id="Vector_31" d="M6.09174 10.1816L6.19097 10.4792L6.50465 10.4816C6.54527 10.482 6.56208 10.5338 6.52943 10.5579L6.27709 10.7443L6.37175 11.0433C6.38404 11.082 6.33991 11.1141 6.30685 11.0904L6.05162 10.908L5.79645 11.0904C5.76339 11.114 5.71936 11.082 5.73155 11.0433L5.82621 10.7443L5.57387 10.5579C5.54122 10.5338 5.55803 10.482 5.59865 10.4816L5.91233 10.4792L6.01156 10.1816C6.02441 10.1431 6.07889 10.1431 6.09174 10.1816Z" fill="#F5F5F5"/>
<path id="Vector_32" d="M6.09174 11.7383L6.19097 12.0359L6.50465 12.0382C6.54527 12.0386 6.56208 12.0903 6.52943 12.1145L6.27709 12.3009L6.37175 12.5999C6.38404 12.6386 6.33991 12.6707 6.30685 12.6471L6.05162 12.4647L5.79645 12.6471C5.76339 12.6707 5.71936 12.6386 5.73155 12.5999L5.82621 12.3009L5.57387 12.1145C5.54122 12.0903 5.55803 12.0386 5.59865 12.0382L5.91233 12.0359L6.01156 11.7383C6.02441 11.6998 6.07889 11.6998 6.09174 11.7383Z" fill="#F5F5F5"/>
<path id="Vector_33" d="M7.29969 6.27484L7.39892 6.57242L7.71259 6.57481C7.75322 6.57516 7.77002 6.62696 7.73737 6.65108L7.48504 6.83745L7.5797 7.1365C7.59199 7.1752 7.54786 7.20729 7.5148 7.18363L7.25963 7.00122L7.00445 7.18363C6.97139 7.20724 6.92737 7.1752 6.93956 7.1365L7.03421 6.83745L6.78188 6.65108C6.74923 6.62691 6.76604 6.57516 6.80666 6.57481L7.12034 6.57242L7.21956 6.27484C7.23241 6.23635 7.28685 6.23635 7.29969 6.27484Z" fill="#F5F5F5"/>
<path id="Vector_34" d="M7.29969 7.83158L7.39892 8.12916L7.71259 8.13155C7.75322 8.1319 7.77002 8.1837 7.73737 8.20782L7.48504 8.39419L7.5797 8.69324C7.59199 8.73193 7.54786 8.76403 7.5148 8.74036L7.25963 8.55796L7.00445 8.74036C6.97139 8.76398 6.92737 8.73198 6.93956 8.69324L7.03421 8.39419L6.78188 8.20782C6.74923 8.18375 6.76604 8.1319 6.80666 8.13155L7.12034 8.12916L7.21956 7.83158C7.23241 7.79304 7.28685 7.79304 7.29969 7.83158Z" fill="#F5F5F5"/>
<path id="Vector_35" d="M7.29969 9.38819L7.39892 9.68577L7.71259 9.68816C7.75322 9.68851 7.77002 9.74026 7.73737 9.76443L7.48504 9.9508L7.5797 10.2499C7.59199 10.2885 7.54786 10.3206 7.5148 10.297L7.25963 10.1146L7.00445 10.297C6.97139 10.3206 6.92737 10.2885 6.93956 10.2499L7.03421 9.9508L6.78188 9.76443C6.74923 9.74026 6.76604 9.68851 6.80666 9.68816L7.12034 9.68577L7.21956 9.38819C7.23241 9.34965 7.28685 9.34965 7.29969 9.38819Z" fill="#F5F5F5"/>
<path id="Vector_36" d="M7.29969 10.9448L7.39892 11.2424L7.71259 11.2448C7.75322 11.2451 7.77002 11.2969 7.73737 11.3211L7.48504 11.5074L7.5797 11.8065C7.59199 11.8452 7.54786 11.8773 7.5148 11.8536L7.25963 11.6712L7.00445 11.8536C6.97139 11.8773 6.92737 11.8452 6.93956 11.8065L7.03421 11.5074L6.78188 11.3211C6.74923 11.2969 6.76604 11.2451 6.80666 11.2448L7.12034 11.2424L7.21956 10.9448C7.23241 10.9063 7.28685 10.9063 7.29969 10.9448Z" fill="#F5F5F5"/>
<path id="Vector_37" d="M8.50868 5.51166L8.6079 5.80924L8.92158 5.81163C8.9622 5.81199 8.97901 5.86378 8.94636 5.8879L8.69403 6.07422L8.78868 6.37327C8.80097 6.41197 8.75684 6.44406 8.72378 6.4204L8.46861 6.23799L8.21344 6.4204C8.18038 6.44406 8.13635 6.41197 8.14854 6.37327L8.2432 6.07422L7.99087 5.8879C7.95821 5.86373 7.97502 5.81193 8.01565 5.81163L8.32932 5.80924L8.42854 5.51166C8.44129 5.47312 8.49583 5.47312 8.50868 5.51166Z" fill="#F5F5F5"/>
<path id="Vector_38" d="M8.50868 7.0683L8.6079 7.36588L8.92158 7.36826C8.9622 7.36862 8.97901 7.42036 8.94636 7.44454L8.69403 7.6309L8.78868 7.92995C8.80097 7.96865 8.75684 8.00074 8.72378 7.97708L8.46861 7.79467L8.21344 7.97708C8.18038 8.00069 8.13635 7.96865 8.14854 7.92995L8.2432 7.6309L7.99087 7.44454C7.95821 7.42036 7.97502 7.36862 8.01565 7.36826L8.32932 7.36588L8.42854 7.0683C8.44129 7.02981 8.49583 7.02981 8.50868 7.0683Z" fill="#F5F5F5"/>
<path id="Vector_39" d="M8.50868 8.62504L8.6079 8.92262L8.92158 8.925C8.9622 8.92536 8.97901 8.9771 8.94636 9.00128L8.69403 9.18764L8.78868 9.48669C8.80097 9.52539 8.75684 9.55748 8.72378 9.53382L8.46861 9.35141L8.21344 9.53382C8.18038 9.55743 8.13635 9.52544 8.14854 9.48669L8.2432 9.18764L7.99087 9.00128C7.95821 8.9771 7.97502 8.92536 8.01565 8.925L8.32932 8.92262L8.42854 8.62504C8.44129 8.58649 8.49583 8.58649 8.50868 8.62504Z" fill="#F5F5F5"/>
<path id="Vector_40" d="M8.50868 10.1816L8.6079 10.4792L8.92158 10.4816C8.9622 10.482 8.97901 10.5338 8.94636 10.5579L8.69403 10.7443L8.78868 11.0433C8.80097 11.082 8.75684 11.1141 8.72378 11.0904L8.46861 10.908L8.21344 11.0904C8.18038 11.114 8.13635 11.082 8.14854 11.0433L8.2432 10.7443L7.99087 10.5579C7.95821 10.5338 7.97502 10.482 8.01565 10.4816L8.32932 10.4792L8.42854 10.1816C8.44129 10.1431 8.49583 10.1431 8.50868 10.1816Z" fill="#F5F5F5"/>
<path id="Vector_41" d="M8.50868 11.7383L8.6079 12.0359L8.92158 12.0382C8.9622 12.0386 8.97901 12.0903 8.94636 12.1145L8.69403 12.3009L8.78868 12.5999C8.80097 12.6386 8.75684 12.6707 8.72378 12.6471L8.46861 12.4647L8.21344 12.6471C8.18038 12.6707 8.13635 12.6386 8.14854 12.5999L8.2432 12.3009L7.99087 12.1145C7.95821 12.0903 7.97502 12.0386 8.01565 12.0382L8.32932 12.0359L8.42854 11.7383C8.44129 11.6998 8.49583 11.6998 8.50868 11.7383Z" fill="#F5F5F5"/>
<path id="Vector_42" d="M9.71669 6.27484L9.81591 6.57242L10.1296 6.57481C10.1702 6.57516 10.187 6.62696 10.1544 6.65108L9.90204 6.83745L9.99669 7.1365C10.009 7.1752 9.96485 7.20729 9.9318 7.18363L9.67662 7.00122L9.42145 7.18363C9.38839 7.20724 9.34436 7.1752 9.35655 7.1365L9.4512 6.83745L9.19887 6.65108C9.16622 6.62691 9.18303 6.57516 9.22365 6.57481L9.53733 6.57242L9.63656 6.27484C9.64935 6.23635 9.70384 6.23635 9.71669 6.27484Z" fill="#F5F5F5"/>
<path id="Vector_43" d="M9.71669 7.83158L9.81591 8.12916L10.1296 8.13155C10.1702 8.1319 10.187 8.1837 10.1544 8.20782L9.90204 8.39419L9.99669 8.69324C10.009 8.73193 9.96485 8.76403 9.9318 8.74036L9.67662 8.55796L9.42145 8.74036C9.38839 8.76398 9.34436 8.73198 9.35655 8.69324L9.4512 8.39419L9.19887 8.20782C9.16622 8.18375 9.18303 8.1319 9.22365 8.13155L9.53733 8.12916L9.63656 7.83158C9.64935 7.79304 9.70384 7.79304 9.71669 7.83158Z" fill="#F5F5F5"/>
<path id="Vector_44" d="M9.71669 9.38819L9.81591 9.68577L10.1296 9.68816C10.1702 9.68851 10.187 9.74026 10.1544 9.76443L9.90204 9.9508L9.99669 10.2499C10.009 10.2885 9.96485 10.3206 9.9318 10.297L9.67662 10.1146L9.42145 10.297C9.38839 10.3206 9.34436 10.2885 9.35655 10.2499L9.4512 9.9508L9.19887 9.76443C9.16622 9.74026 9.18303 9.68851 9.22365 9.68816L9.53733 9.68577L9.63656 9.38819C9.64935 9.34965 9.70384 9.34965 9.71669 9.38819Z" fill="#F5F5F5"/>
<path id="Vector_45" d="M9.71669 10.9448L9.81591 11.2424L10.1296 11.2448C10.1702 11.2451 10.187 11.2969 10.1544 11.3211L9.90204 11.5074L9.99669 11.8065C10.009 11.8452 9.96485 11.8773 9.9318 11.8536L9.67662 11.6712L9.42145 11.8536C9.38839 11.8773 9.34436 11.8452 9.35655 11.8065L9.4512 11.5074L9.19887 11.3211C9.16622 11.2969 9.18303 11.2451 9.22365 11.2448L9.53733 11.2424L9.63656 10.9448C9.64935 10.9063 9.70384 10.9063 9.71669 10.9448Z" fill="#F5F5F5"/>
<path id="Vector_46" d="M10.9247 5.51166L11.0239 5.80924L11.3376 5.81163C11.3782 5.81199 11.395 5.86378 11.3624 5.8879L11.1101 6.07422L11.2047 6.37327C11.217 6.41197 11.1729 6.44406 11.1398 6.4204L10.8846 6.23799L10.6295 6.4204C10.5964 6.44406 10.5524 6.41197 10.5646 6.37327L10.6592 6.07422L10.4069 5.8879C10.3742 5.86373 10.391 5.81193 10.4317 5.81163L10.7453 5.80924L10.8446 5.51166C10.8574 5.47312 10.9118 5.47312 10.9247 5.51166Z" fill="#F5F5F5"/>
<path id="Vector_47" d="M10.9247 7.0683L11.0239 7.36588L11.3376 7.36826C11.3782 7.36862 11.395 7.42036 11.3624 7.44454L11.1101 7.6309L11.2047 7.92995C11.217 7.96865 11.1729 8.00074 11.1398 7.97708L10.8846 7.79467L10.6295 7.97708C10.5964 8.00069 10.5524 7.96865 10.5646 7.92995L10.6592 7.6309L10.4069 7.44454C10.3742 7.42036 10.391 7.36862 10.4317 7.36826L10.7453 7.36588L10.8446 7.0683C10.8574 7.02981 10.9118 7.02981 10.9247 7.0683Z" fill="#F5F5F5"/>
<path id="Vector_48" d="M10.9247 8.62504L11.0239 8.92262L11.3376 8.925C11.3782 8.92536 11.395 8.9771 11.3624 9.00128L11.1101 9.18764L11.2047 9.48669C11.217 9.52539 11.1729 9.55748 11.1398 9.53382L10.8846 9.35141L10.6295 9.53382C10.5964 9.55743 10.5524 9.52544 10.5646 9.48669L10.6592 9.18764L10.4069 9.00128C10.3742 8.9771 10.391 8.92536 10.4317 8.925L10.7453 8.92262L10.8446 8.62504C10.8574 8.58649 10.9118 8.58649 10.9247 8.62504Z" fill="#F5F5F5"/>
<path id="Vector_49" d="M10.9247 10.1816L11.0239 10.4792L11.3376 10.4816C11.3782 10.482 11.395 10.5338 11.3624 10.5579L11.1101 10.7443L11.2047 11.0433C11.217 11.082 11.1729 11.1141 11.1398 11.0904L10.8846 10.908L10.6295 11.0904C10.5964 11.114 10.5524 11.082 10.5646 11.0433L10.6592 10.7443L10.4069 10.5579C10.3742 10.5338 10.391 10.482 10.4317 10.4816L10.7453 10.4792L10.8446 10.1816C10.8574 10.1431 10.9118 10.1431 10.9247 10.1816Z" fill="#F5F5F5"/>
<path id="Vector_50" d="M10.9247 11.7383L11.0239 12.0359L11.3376 12.0382C11.3782 12.0386 11.395 12.0903 11.3624 12.1145L11.1101 12.3009L11.2047 12.5999C11.217 12.6386 11.1729 12.6707 11.1398 12.6471L10.8846 12.4647L10.6295 12.6471C10.5964 12.6707 10.5524 12.6386 10.5646 12.5999L10.6592 12.3009L10.4069 12.1145C10.3742 12.0903 10.391 12.0386 10.4317 12.0382L10.7453 12.0359L10.8446 11.7383C10.8574 11.6998 10.9118 11.6998 10.9247 11.7383Z" fill="#F5F5F5"/>
</g>
</g>
</svg>
